<svg width="178" height="410" viewBox="0 0 178 410" fill="none" xmlns="http://www.w3.org/2000/svg">
<rect x="0.317566" y="0.42276" width="177" height="409" rx="15" fill="#484848"/>
<rect x="39" y="25.0916" width="42" height="23" rx="10" fill="#FF6464"/>
<rect x="39" y="58.0916" width="42" height="23" rx="10" fill="#FF6464"/>
<rect x="39" y="91.0916" width="42" height="23" rx="10" fill="#FFCC49"/>
<rect x="39" y="124.092" width="42" height="23" rx="10" fill="#FFCC49"/>
<rect x="39" y="157.092" width="42" height="23" rx="10" fill="#FFCC49"/>
<rect x="39" y="190.092" width="42" height="23" rx="10" fill="#FFCC49"/>
<rect x="39" y="223.092" width="42" height="23" rx="10" fill="#9EFF71"/>
<rect x="39" y="256.092" width="42" height="23" rx="10" fill="#9EFF71"/>
<rect x="39" y="289.092" width="42" height="23" rx="10" fill="#9EFF71"/>
<rect x="39" y="322.092" width="42" height="23" rx="10" fill="#9EFF71"/>
<rect x="39" y="355.092" width="42" height="23" rx="10" fill="#9EFF71"/>
<rect x="97" y="25.0916" width="42" height="23" rx="10" fill="#FF6464"/>
<rect x="97" y="58.0916" width="42" height="23" rx="10" fill="#FF6464"/>
<rect x="97" y="91.0916" width="42" height="23" rx="10" fill="#FFCC49"/>
<rect x="97" y="124.092" width="42" height="23" rx="10" fill="#FFCC49"/>
<rect x="97" y="157.092" width="42" height="23" rx="10" fill="#FFCC49"/>
<rect x="97" y="190.092" width="42" height="23" rx="10" fill="#FFCC49"/>
<rect x="97" y="223.092" width="42" height="23" rx="10" fill="#9EFF71"/>
<rect x="97" y="256.092" width="42" height="23" rx="10" fill="#9EFF71"/>
<rect x="97" y="289.092" width="42" height="23" rx="10" fill="#9EFF71"/>
<rect x="97" y="322.092" width="42" height="23" rx="10" fill="#9EFF71"/>
<rect x="97" y="355.092" width="42" height="23" rx="10" fill="#9EFF71"/>
</svg>
